<svg xmlns="http://www.w3.org/2000/svg" viewBox="0 0 163.9 163.9">
  <defs>
    <style>
      .cls-1{fill:#5759fb}
    </style>
  </defs>
  <path class="cls-1" d="M15.4 73.5c.1-1.2-.7-1.6-1.5-1.7a1.4 1.4 0 00-1.7 1.3v.9l3 .3zM29.7 126.5l4-2-1.5-1.8-2.5 3.8zM147 58.3l-4.5.3.8 2.3 3.6-2.6zM139.7 44.2a1.4 1.4 0 00.5-2.1l-.5-.7-2.6 1.8.4.7a1.4 1.4 0 002.2.3zM22 57.3l-4.5-.4 3.6 2.6.9-2.2zM56.2 95a12 12 0 012.2 2.7l1.5 2.5a23 23 0 003.3 4.6 15.3 15.3 0 008 4 2.6 2.6 0 011.8 1 2 2 0 01.2 1.6c-.2 1.3-1.1 1.8-2.7 1.6a2.3 2.3 0 00-.5 0 2.1 2.1 0 00-1.8 1.1 3.1 3.1 0 00.4 4.2 14.1 14.1 0 003.5 2.8 24 24 0 0016 2.7 5.3 5.3 0 004.6-4.8v-.3h-.6a5.2 5.2 0 01-.8 0 2 2 0 01-2-1.7 2 2 0 011.5-2.5l1.8-.7.3-.1 3-1.2c3.4-1.3 5.1-4.2 6.2-6.7a30 30 0 001.4-15.2 9.8 9.8 0 01.4-4l.7-2.2.2-.6a133.7 133.7 0 005.3-17.7c.6-2.5-.1-3.4-2.4-4.7a2.7 2.7 0 00-2.5-.4c-.6.3-1.2 1-1.5 2.5L101 81.1a2.7 2.7 0 01-1 2 2.3 2.3 0 01-1.7.2c-1.3-.3-1.8-1.3-1.6-3l.6-3 1.1-6.3 1.9-18.7v-.9a4 4 0 00-6-3.8 4.3 4.3 0 00-2 3.3l-.3 2.6-.5 7L90 77a2 2 0 01-2.2 2.1 2 2 0 01-2.1-2.4l.1-2.5v-.2l.1-2.5.4-9.5.6-17a6 6 0 00-2.4-5 4.3 4.3 0 00-3.9-.9 4.6 4.6 0 00-3 2.6 18 18 0 00-1 5.2 45 45 0 00.5 10.8c.6 4 1 8.2 1.4 12.3l.4 5a7.9 7.9 0 010 1v.8c.1 1.1-.6 1.6-1.6 2.2l-.2.1a1.3 1.3 0 01-1 .2 1.5 1.5 0 01-1-1l-.3-.5a3.8 3.8 0 01-.5-1.5A147.1 147.1 0 0071.2 50a4.2 4.2 0 00-3.8-3.5c-2.3-.2-3.7.8-4.3 3.1a13.6 13.6 0 00-.5 4.4c.2 2.8.5 5.5.9 8.2l.3 3L66.3 85h.2a19 19 0 0110.9 3.3 15.6 15.6 0 017 9.4 2.3 2.3 0 01-1.4 2.7 2.3 2.3 0 01-2.7-1.5l-.5-1.3a9 9 0 00-1.8-3.2c-3.5-3.4-6.9-5-10.5-5l-.1-.2v.3H67c-4 0-7.3-2-10.8-4.4a10.5 10.5 0 00-9.3-1.6 4 4 0 00-2 2 2.6 2.6 0 00-.4 1.7 5.7 5.7 0 004 4.2 20.2 20.2 0 017.6 3.8z"/>

  <path class="cls-1" d="M82 0a82 82 0 1082 82A82 82 0 0082 0zm73.5 69.7l.2.9a1.9 1.9 0 01-1.8 2.4L143 74.7a1.9 1.9 0 01-2.4-1.8l-.1-.9a1.9 1.9 0 011.7-2.4l10.9-1.6a1.9 1.9 0 012.4 1.7zm-3.6-14l.5 1.5a2.3 2.3 0 01-.8 2.9l-9.1 7.4a1.6 1.6 0 01-2.9-.8l-.3-.8a2.2 2.2 0 011-2.8V63l-1.4-4h-.1a2.2 2.2 0 01-2.5-1.7l-.3-.9c-.5-1.4.2-2.4 1.7-2.4h11.8a2.3 2.3 0 012.3 1.7zm-10.4-19.2l2.2 3.3c3 4.5 1.8 6.7-.7 8.4a5.2 5.2 0 01-4.6.7l-1.8 3.1c-1 1.5-2 1.6-3 0l-.5-.7a2.3 2.3 0 010-3L135 46a2.2 2.2 0 01-.2-.2l-.5-.7-1.9 1.3a1.9 1.9 0 01-2.9-.6l-.5-.7a1.9 1.9 0 01.5-3l9.2-6.1a1.9 1.9 0 012.9.5zm-36.4-15h.4a2.4 2.4 0 012 1.6 2.7 2.7 0 001.3 1.6c.7.4 1.3.3 1.5-.2.7-1.5-6.2-4-4-8.8 1.3-2.6 4.3-3.2 7.5-1.6 2.4 1.1 4 2.6 4.2 4.3s-.6 2.6-2 2.2l-.4-.1c-1.6-.5-1.8-1.4-2.2-2.1a2.1 2.1 0 00-1-1c-.6-.3-1.2-.2-1.4.3-1 1.9 6.4 4 4 8.8-1.2 2.6-4.4 3.1-7.7 1.5-2.2-1-4-2.8-4.2-4.6-.2-1.5.7-2.3 2-2zm-16-6.2l1.2-6a1.9 1.9 0 012.5-1.6l1 .2a1.9 1.9 0 011.5 2.4l-1.2 6c-.4 1.9-.2 2.8 1 3s1.7-.4 2-2.2l1.3-6a1.9 1.9 0 012.5-1.7l1 .2a1.9 1.9 0 011.6 2.5l-1.3 6c-1 4.7-3.6 6.5-8 5.5s-6.1-3.5-5.1-8.3zM66.7 10a2 2 0 012-2.2l2.4-.2a2.1 2.1 0 012.4 1.6l2.5 7.9L77.1 9a2.1 2.1 0 012.1-2l2.4-.2A2 2 0 0184 8.5l2.4 10.9a1.8 1.8 0 01-1.8 2.4h-.9a2 2 0 01-2.3-1.8L80 13.5l-1 6.9a2.2 2.2 0 01-2.1 2h-1a2.1 2.1 0 01-2.5-1.6l-2-6.5V21a2 2 0 01-2 2.1l-1 .1a1.8 1.8 0 01-2.1-2zM54 12.3c2.5-1 4.6-1.1 6-.1s1.5 2.2.2 3l-.3.2a3 3 0 01-3 .1 2.1 2.1 0 00-1.3 0c-.7.4-1 .8-.8 1.3.8 2 7.3-2 9.3 3 1 2.7-.8 5.4-4.2 6.8-2.3.9-4.8 1-6.3 0a1.6 1.6 0 010-3l.3-.1a2.4 2.4 0 012.5-.3 2.6 2.6 0 002 0c.8-.2 1.1-.7 1-1.2-.7-1.6-7.2 1.9-9.2-3.1-1.1-2.7.5-5.2 3.8-6.6zM42 18.6l.8-.4a1.9 1.9 0 012.9.6l5.8 9.3a1.9 1.9 0 01-.7 3l-.7.4a1.9 1.9 0 01-3-.6l-5.8-9.4a1.9 1.9 0 01.7-2.9zm-10.3 7.9c2-1.8 3.9-2.7 5.6-2.3s2.1 1.5 1.2 2.8l-.2.3a3 3 0 01-2.8 1.2 2 2 0 00-1.2.5c-.6.5-.7 1-.4 1.4 1.5 1.6 6.2-4.4 9.8-.4 2 2.1 1.1 5.3-1.6 7.8-1.8 1.6-4 2.6-5.8 2.1-1.5-.4-1.9-1.5-1.1-2.6l.2-.3a2.4 2.4 0 012.3-1.2 2.7 2.7 0 002-.6c.5-.6.7-1.2.3-1.5-1.1-1.3-6 4.3-9.6.3-2-2.1-1.4-5.1 1.3-7.5zM20.5 39.3c1.6-2.2 3.2-3.5 5-3.5s2.5 1 1.8 2.4l-.1.3c-.7 1.6-1.6 1.6-2.5 1.9a2 2 0 00-1 .8c-.5.5-.4 1.1 0 1.4 1.7 1.2 5-5.6 9.3-2.6 2.4 1.7 2.4 5 .3 8-1.4 2-3.4 3.5-5.3 3.4-1.5 0-2-1-1.6-2.3l.1-.4a2.4 2.4 0 012-1.7 2.6 2.6 0 001.8-1.1c.4-.6.4-1.2 0-1.5-1.5-1-5 5.5-9.4 2.4-2.3-1.6-2.4-4.6-.4-7.5zm-8.4 16.4l.6-1.6a2.3 2.3 0 012.4-1.6l11.8.3a1.6 1.6 0 011.6 2.5l-.3.8a2.2 2.2 0 01-2.5 1.5h-.2l-1.5 4 .2.1a2.2 2.2 0 01.8 2.9l-.3.8a1.6 1.6 0 01-2.9.7l-9-7.6a2.3 2.3 0 01-.7-2.8zM7.6 76.5l.5-4c.6-5.3 3-6.2 6-5.8a5.1 5.1 0 014 2.4l3.3-1.1c1.7-.6 2.5 0 2.3 1.9l-.1.9a2.3 2.3 0 01-2 2.2l-2.8.7v1.1l2.2.2a1.9 1.9 0 011.8 2.3v1a1.9 1.9 0 01-2.4 1.8l-11-1.3a1.9 1.9 0 01-1.8-2.3zm.1 10.2v-.9a1.9 1.9 0 012-2.2l11-.7a1.9 1.9 0 012.2 2v.9a1.9 1.9 0 01-2 2.2l-11 .7a1.9 1.9 0 01-2.2-2zm2.4 14.5l-1.5-6.5a1.9 1.9 0 011.6-2.5h.3a1.9 1.9 0 012.5 1.5l.2.8 8.4-2a1.9 1.9 0 012.5 1.7l.2.8a1.9 1.9 0 01-1.6 2.5l-8.4 2 .2.7a1.9 1.9 0 01-1.6 2.5l-.3.1a1.9 1.9 0 01-2.5-1.6zm9.8 18a1.9 1.9 0 01-2.8-1l-.5-1a2.6 2.6 0 01.2-2.9l3.7-5.2-4.4 2.2a1.9 1.9 0 01-2.9-1l-.3-.8a1.9 1.9 0 011-2.8l9.9-4.8a1.9 1.9 0 012.8 1l.4 1a2.6 2.6 0 01-.2 2.9l-3.7 5.2 4.4-2.1a1.9 1.9 0 012.9 1l.3.8a1.9 1.9 0 01-1 2.8zm20 7.8l-11 4.3a2.3 2.3 0 01-2.9-.7l-1-1.2a2.3 2.3 0 01-.3-3l5.9-10.1a1.6 1.6 0 013-.3l.5.7a2.2 2.2 0 01.2 2.9l-.1.2L37 123h.2a2.2 2.2 0 012.8.5l.6.7c1 1.2.7 2.3-.7 2.9zm.5-37.8a8.5 8.5 0 01.9-6.7c1.8-3 5.2-3.8 7.7-4a15.8 15.8 0 0110.5 3.2 10.5 10.5 0 001 .6l.6.4.4.3-.2-2.5-.4-3.8-.8-6.5-.2-2-.6-4c-.4-3.2-.8-6.5-1-9.8a19 19 0 01.6-6.3c1.2-4.5 5.5-6.9 10.3-5.7a14.4 14.4 0 012 .6l1.1.4.3.2v-.4c.7-5.8 4.3-9 10-9h.4c3.7.1 7.3 4.2 8.3 9.4v.4l.4-.2c2.1-1.6 4.5-1.5 6.5-1.1 3.3.5 6.7 4.8 6.4 8.2l-.2 3.4V56H106.3a8.9 8.9 0 016.7 4 8.1 8.1 0 011.3 7l-1.2 4.8c-.4 1.6-.7 3.4-1.2 5l-1.9 5.2-1.6 4.7a11.4 11.4 0 00-.5 4.3c.3 4.9.5 10-1 15a13.7 13.7 0 01-3.3 6.2l-.8.8a11.4 11.4 0 01-4.3 3.3c-.6.2-1 1-1 1.5a17.3 17.3 0 00-.4 1.7 14.5 14.5 0 01-.6 2.2 8.8 8.8 0 01-6.4 5.9 30.1 30.1 0 01-7.3 1 15.8 15.8 0 01-5-.7l-1-.4c-3.9-1.2-7.9-2.6-11-5.6a8.4 8.4 0 01-2.7-7.4 6 6 0 01.9-2.1l.6-1v-.2l-.1-.1-1.5-1-3.3-2.4a9.8 9.8 0 01-2-2.5l-1.2-2.3a33.2 33.2 0 00-1.8-3 7.6 7.6 0 00-2.7-2.4l-4-1.9-3.4-1.5a8 8 0 01-4.1-5zm6.7 59.6l-.3-.1c-1.8-.9-2.1-2.1-1.4-3.3l.3-.3a1.9 1.9 0 012.2-.8h.2c.5.2 1 .3 1.6-1.2l3-6.3a1.9 1.9 0 012.8-1l.8.4a1.9 1.9 0 011 2.8l-3.2 7c-1.6 3.4-3.6 4.4-7 2.8zm22.2-6.1v.3a1.9 1.9 0 01-2.6 1.4l-3-.8-.4 1.3 2.7.7c1.3.4 1.8 1.2 1.5 2.3-.3 1-1.2 1.5-2.5 1.1l-2.7-.7-.4 1.3 3 .9a1.9 1.9 0 011.5 2.5v.3a1.9 1.9 0 01-2.7 1.4l-5.9-1.6a1.9 1.9 0 01-1.4-2.6l3-10.6a1.9 1.9 0 012.6-1.4l6 1.7a1.9 1.9 0 011.3 2.6zm11.7 1.2v.3a1.9 1.9 0 01-2.2 1.9l-.8-.1-.8 8.6a1.9 1.9 0 01-2.3 1.9l-.9-.1a1.9 1.9 0 01-1.9-2.3l.8-8.6h-.8a1.9 1.9 0 01-1.8-2.4v-.2a1.9 1.9 0 012.2-1.9l6.7.6A1.9 1.9 0 0181 144zm12 12.2l-7.8.7a1.9 1.9 0 01-2.3-1.8v-.6a3.7 3.7 0 01.8-2.7l4.3-5.9-3.7.4a1.9 1.9 0 01-2.3-2v-.2a1.9 1.9 0 011.9-2.3l7.9-.7A1.9 1.9 0 0194 143v.5a3.6 3.6 0 01-.7 2.7l-4.2 6 3.6-.4a1.9 1.9 0 012.3 2v.2a1.9 1.9 0 01-2 2.3zm11-2.5l-.8.3a1.9 1.9 0 01-2.6-1.5l-2.4-8.3-.7.3a1.9 1.9 0 01-2.6-1.5l-.1-.2a1.9 1.9 0 011.4-2.6l6.4-1.9a1.9 1.9 0 012.6 1.5l.1.2a1.9 1.9 0 01-1.4 2.6l-.8.2 2.4 8.3a1.9 1.9 0 01-1.4 2.7zm6-10l-2.9-4.7a1.8 1.8 0 01.9-2.8l1-.5a1.8 1.8 0 012.8 1.2l1.6 5.2c.4 1.3.1 2.1-.8 2.6s-1.9.1-2.6-1zm5 6.3c-1.4.6-2.8.4-3.4-1s0-2.6 1.5-3.3 2.7-.4 3.4 1-.2 2.7-1.5 3.3zm5.7-119.2l-2.2-1.5c-1-.8-1.3-1.8-.6-2.7s1.7-1 2.8-.3l2.1 1.6c1.1.8 1.3 1.7.6 2.7s-1.6 1-2.7.2zm2.3 8a1.9 1.9 0 010-3l6-6.1-.6-.6a1.9 1.9 0 010-3l.2-.2a1.9 1.9 0 013 0l4.8 4.6a1.9 1.9 0 010 3l-.2.2a1.9 1.9 0 01-3 0l-.6-.5-6 6.2a1.9 1.9 0 01-3 0zm15.5 91.4c-1.7 2-3.5 3.1-5.5 3-1.5-.1-1.8-1-1.1-2.4l.4-.7a3.1 3.1 0 012-1.6 2.7 2.7 0 001-.8c1-1 .5-2.7-1.2-4.2s-3.3-1.6-4.3-.5a1.7 1.7 0 000 2.4l.5-.5a1.6 1.6 0 012.5-.3c.8.8.8 1.7 0 2.8l-2.3 2.7c-.9 1-1.6 1.4-2.5.7l-.2-.2c-3.6-3.1-4-7-1-10.5s7-3.5 10.6-.4 4 7.2 1.1 10.5zm12.8-21l-.5 1a2.6 2.6 0 01-2.4 1.7l-6.4.4 4.5 2.1a1.9 1.9 0 011 2.8l-.4.8a1.9 1.9 0 01-2.8 1l-10-4.7a1.9 1.9 0 01-1-2.8l.6-1a2.6 2.6 0 012.4-1.6l6.3-.4-4.5-2.1a1.9 1.9 0 01-1-2.8l.4-.9a1.9 1.9 0 012.8-1l10 4.8a1.9 1.9 0 011 2.8zm3-10l-.3 1a1.9 1.9 0 01-2.5 1.5l-10.7-2.7a1.9 1.9 0 01-1.5-2.5l.2-.9a1.9 1.9 0 012.6-1.5l10.6 2.6a1.9 1.9 0 011.6 2.5zm-.2-12.4a1.9 1.9 0 012 2.2v.9a1.9 1.9 0 01-2.2 2l-11-.5a1.9 1.9 0 01-2-2.2l.1-1.1a2.6 2.6 0 011.6-2.4l5.7-2.8-5-.3a1.9 1.9 0 01-2-2.2v-.9a1.9 1.9 0 012.2-2l11 .5a1.9 1.9 0 012 2.2v1.1a2.6 2.6 0 01-1.5 2.4l-5.7 2.9z"/>
</svg>
